<svg xmlns="http://www.w3.org/2000/svg" viewBox="0 0 360.00 400.00" width="360.00" height="400.00"><path d="M 29 19 H 331 V 302 L 180 358 L 29 302 Z" fill="none" stroke="#FFFFFF" stroke-width="13" stroke-linejoin="round"/><path d="M 206.00 36.00 L 210.94 51.20 L 226.92 51.20 L 213.99 60.60 L 218.93 75.80 L 206.00 66.40 L 193.07 75.80 L 198.01 60.60 L 185.08 51.20 L 201.06 51.20 Z" fill="#FFFFFF"/><path d="M 100.00 64.00 L 104.72 78.51 L 119.97 78.51 L 107.63 87.48 L 112.34 101.99 L 100.00 93.02 L 87.66 101.99 L 92.37 87.48 L 80.03 78.51 L 95.28 78.51 Z" fill="#FFFFFF"/><path d="M 263.00 87.00 L 267.27 100.13 L 281.07 100.13 L 269.90 108.24 L 274.17 121.37 L 263.00 113.26 L 251.83 121.37 L 256.10 108.24 L 244.93 100.13 L 258.73 100.13 Z" fill="#FFFFFF"/><path d="M 272.00 218.00 L 276.04 230.44 L 289.12 230.44 L 278.54 238.12 L 282.58 250.56 L 272.00 242.88 L 261.42 250.56 L 265.46 238.12 L 254.88 230.44 L 267.96 230.44 Z" fill="#FFFFFF"/><path d="M 133.00 274.00 L 137.49 287.82 L 152.02 287.82 L 140.27 296.36 L 144.76 310.18 L 133.00 301.64 L 121.24 310.18 L 125.73 296.36 L 113.98 287.82 L 128.51 287.82 Z" fill="#FFFFFF"/><g transform="rotate(45 180 184)"><rect x="121" y="125" width="118" height="118" rx="7" fill="none" stroke="#FFFFFF" stroke-width="11"/></g><path d="M 136 178 A 44 46 0 0 1 224 178 Q 180 192 136 178 Z" fill="#FFFFFF"/><path d="M 139 181 L 175 222" stroke="#FFFFFF" stroke-width="5.5" stroke-linecap="round"/><path d="M 159 188 L 177 222" stroke="#FFFFFF" stroke-width="5.5" stroke-linecap="round"/><path d="M 201 188 L 183 222" stroke="#FFFFFF" stroke-width="5.5" stroke-linecap="round"/><path d="M 221 181 L 185 222" stroke="#FFFFFF" stroke-width="5.5" stroke-linecap="round"/><rect x="172" y="219" width="16" height="25" rx="8" fill="#FFFFFF"/></svg>